<svg width="256" height="256" viewBox="0 0 256 256" fill="none" xmlns="http://www.w3.org/2000/svg">
  <!-- Background circle with gradient -->
  <defs>
    <linearGradient id="achievementGradient" x1="0%" y1="0%" x2="100%" y2="100%">
      <stop offset="0%" style="stop-color:#8B5CF6;stop-opacity:1" />
      <stop offset="100%" style="stop-color:#7C3AED;stop-opacity:1" />
    </linearGradient>
    <linearGradient id="medalGradient" x1="0%" y1="0%" x2="100%" y2="100%">
      <stop offset="0%" style="stop-color:#FCD34D;stop-opacity:1" />
      <stop offset="100%" style="stop-color:#F59E0B;stop-opacity:1" />
    </linearGradient>
  </defs>
  
  <!-- Background circle -->
  <circle cx="128" cy="128" r="120" fill="url(#achievementGradient)" stroke="#6D28D9" stroke-width="4"/>
  
  <!-- Ribbon -->
  <path d="M100 80 L100 180 L115 165 L128 175 L141 165 L156 180 L156 80 Z" fill="#DC2626" stroke="#991B1B" stroke-width="2"/>
  
  <!-- Medal -->
  <circle cx="128" cy="120" r="35" fill="url(#medalGradient)" stroke="#D97706" stroke-width="3"/>
  
  <!-- Medal inner circle -->
  <circle cx="128" cy="120" r="25" fill="#FEF3C7" stroke="#F59E0B" stroke-width="2"/>
  
  <!-- Star in medal -->
  <path d="M128 100 L132 112 L144 112 L135 120 L139 132 L128 125 L117 132 L121 120 L112 112 L124 112 Z" fill="#D97706"/>
  
  <!-- Achievement ribbons -->
  <path d="M100 180 L110 200 L115 185 Z" fill="#B91C1C"/>
  <path d="M141 185 L146 200 L156 180 Z" fill="#B91C1C"/>
  
  <!-- Sparkles -->
  <circle cx="80" cy="90" r="3" fill="#FCD34D"/>
  <circle cx="176" cy="100" r="2" fill="#FCD34D"/>
  <circle cx="70" cy="150" r="2" fill="#FCD34D"/>
  <circle cx="186" cy="140" r="3" fill="#FCD34D"/>
  <circle cx="200" cy="170" r="2" fill="#FCD34D"/>
  
  <!-- Small stars -->
  <path d="M85 60 L86 64 L90 64 L87 67 L88 71 L85 68 L82 71 L83 67 L80 64 L84 64 Z" fill="#FDE047"/>
  <path d="M170 70 L171 74 L175 74 L172 77 L173 81 L170 78 L167 81 L168 77 L165 74 L169 74 Z" fill="#FDE047"/>
</svg>